G04 Layer_Physical_Order=1*
G04 Layer_Color=255*
%FSLAX43Y43*%
%MOMM*%
G71*
G01*
G75*
%ADD10R,1.500X0.550*%
%ADD11R,1.016X1.524*%
%ADD12R,1.524X1.016*%
%ADD13C,0.500*%
%ADD14R,1.800X1.800*%
%ADD15C,1.800*%
%ADD16R,1.800X1.800*%
G36*
X115817Y36583D02*
X93733D01*
Y45840D01*
X100705D01*
X100744Y45713D01*
X100729Y45702D01*
X100617Y45536D01*
X100578Y45339D01*
Y44831D01*
X100457D01*
Y42799D01*
X100578D01*
Y42418D01*
X100457D01*
Y41027D01*
X99060D01*
Y41275D01*
X98812D01*
Y42153D01*
X99452D01*
Y44461D01*
X97144D01*
Y42153D01*
X97784D01*
Y41275D01*
X97028D01*
Y41027D01*
X96774D01*
Y41275D01*
X94742D01*
Y39751D01*
X96774D01*
Y39999D01*
X97028D01*
Y39751D01*
X99060D01*
Y39999D01*
X100578D01*
Y39751D01*
X100457D01*
Y37719D01*
X101981D01*
Y39751D01*
X101606D01*
Y40386D01*
X101981D01*
Y42418D01*
X101606D01*
Y42799D01*
X101981D01*
Y44825D01*
X102489D01*
Y42799D01*
X104013D01*
Y43301D01*
X104637D01*
Y42661D01*
X106218D01*
X106317Y42563D01*
X106483Y42451D01*
X106680Y42412D01*
X108089D01*
Y42397D01*
X110097D01*
Y43455D01*
X108089D01*
Y43440D01*
X106945D01*
Y44825D01*
X113325D01*
X113979Y44171D01*
Y43455D01*
X113489D01*
Y42397D01*
X115497D01*
Y43455D01*
X115007D01*
Y44384D01*
X114968Y44581D01*
X114856Y44747D01*
X113901Y45702D01*
X113886Y45713D01*
X113925Y45840D01*
X115817D01*
Y36583D01*
D02*
G37*
%LPC*%
G36*
X97917Y39243D02*
X97028D01*
Y38608D01*
X97917D01*
Y39243D01*
D02*
G37*
G36*
X95631D02*
X94742D01*
Y38608D01*
X95631D01*
Y39243D01*
D02*
G37*
G36*
X96774D02*
X95885D01*
Y38608D01*
X96774D01*
Y39243D01*
D02*
G37*
G36*
X99060D02*
X98171D01*
Y38608D01*
X99060D01*
Y39243D01*
D02*
G37*
G36*
X114366Y39645D02*
X113489D01*
Y39243D01*
X114366D01*
Y39645D01*
D02*
G37*
G36*
X110097D02*
X109220D01*
Y39243D01*
X110097D01*
Y39645D01*
D02*
G37*
G36*
X108966D02*
X108089D01*
Y39243D01*
X108966D01*
Y39645D01*
D02*
G37*
G36*
X115497Y38989D02*
X114620D01*
Y38587D01*
X115497D01*
Y38989D01*
D02*
G37*
G36*
X97917Y38354D02*
X97028D01*
Y37719D01*
X97917D01*
Y38354D01*
D02*
G37*
G36*
X96774D02*
X95885D01*
Y37719D01*
X96774D01*
Y38354D01*
D02*
G37*
G36*
X95631D02*
X94742D01*
Y37719D01*
X95631D01*
Y38354D01*
D02*
G37*
G36*
X99060D02*
X98171D01*
Y37719D01*
X99060D01*
Y38354D01*
D02*
G37*
G36*
X114366Y38989D02*
X113489D01*
Y38587D01*
X114366D01*
Y38989D01*
D02*
G37*
G36*
X110097D02*
X109220D01*
Y38587D01*
X110097D01*
Y38989D01*
D02*
G37*
G36*
X108966D02*
X108089D01*
Y38587D01*
X108966D01*
Y38989D01*
D02*
G37*
G36*
X105791Y42439D02*
X105490Y42399D01*
X105209Y42283D01*
X104968Y42098D01*
X104828Y41916D01*
X104013D01*
Y42418D01*
X102489D01*
Y40386D01*
X104013D01*
Y40888D01*
X104702D01*
X104783Y40693D01*
X104968Y40452D01*
X105209Y40267D01*
X105490Y40151D01*
X105791Y40111D01*
X106092Y40151D01*
X106373Y40267D01*
X106614Y40452D01*
X106799Y40693D01*
X106915Y40974D01*
X106937Y41142D01*
X108089D01*
Y41127D01*
X110097D01*
Y42185D01*
X108089D01*
Y42170D01*
X106520D01*
X106373Y42283D01*
X106092Y42399D01*
X105791Y42439D01*
D02*
G37*
G36*
X115497Y42185D02*
X114620D01*
Y41783D01*
X115497D01*
Y42185D01*
D02*
G37*
G36*
X114366D02*
X113489D01*
Y41783D01*
X114366D01*
Y42185D01*
D02*
G37*
G36*
X95631Y43180D02*
X94611D01*
X94634Y43006D01*
X94750Y42725D01*
X94935Y42484D01*
X95176Y42299D01*
X95457Y42183D01*
X95631Y42160D01*
Y43180D01*
D02*
G37*
G36*
X95885Y44454D02*
Y43434D01*
X96905D01*
X96882Y43608D01*
X96766Y43889D01*
X96581Y44130D01*
X96340Y44315D01*
X96059Y44431D01*
X95885Y44454D01*
D02*
G37*
G36*
X95631D02*
X95457Y44431D01*
X95176Y44315D01*
X94935Y44130D01*
X94750Y43889D01*
X94634Y43608D01*
X94611Y43434D01*
X95631D01*
Y44454D01*
D02*
G37*
G36*
X96905Y43180D02*
X95885D01*
Y42160D01*
X96059Y42183D01*
X96340Y42299D01*
X96581Y42484D01*
X96766Y42725D01*
X96882Y43006D01*
X96905Y43180D01*
D02*
G37*
G36*
X115497Y41529D02*
X114620D01*
Y41127D01*
X115497D01*
Y41529D01*
D02*
G37*
G36*
X114366Y40259D02*
X113489D01*
Y39857D01*
X114366D01*
Y40259D01*
D02*
G37*
G36*
X110097Y40915D02*
X108089D01*
Y40900D01*
X107696D01*
X107499Y40861D01*
X107333Y40749D01*
X106952Y40368D01*
X106840Y40202D01*
X106801Y40005D01*
Y39523D01*
X106674Y39480D01*
X106614Y39558D01*
X106373Y39743D01*
X106092Y39859D01*
X105791Y39899D01*
X105490Y39859D01*
X105209Y39743D01*
X104968Y39558D01*
X104783Y39317D01*
X104755Y39249D01*
X104013D01*
Y39751D01*
X102489D01*
Y37719D01*
X104013D01*
Y38221D01*
X104755D01*
X104783Y38153D01*
X104968Y37912D01*
X105209Y37727D01*
X105490Y37611D01*
X105791Y37571D01*
X106092Y37611D01*
X106373Y37727D01*
X106614Y37912D01*
X106799Y38153D01*
X106827Y38221D01*
X107061D01*
X107258Y38260D01*
X107424Y38372D01*
X107678Y38626D01*
X107790Y38792D01*
X107829Y38989D01*
Y39792D01*
X107909Y39872D01*
X108089D01*
Y39857D01*
X110097D01*
Y40915D01*
D02*
G37*
G36*
X115497Y39645D02*
X114620D01*
Y39243D01*
X115497D01*
Y39645D01*
D02*
G37*
G36*
Y40259D02*
X114620D01*
Y39857D01*
X115497D01*
Y40259D01*
D02*
G37*
G36*
X114366Y41529D02*
X113489D01*
Y41127D01*
X114366D01*
Y41529D01*
D02*
G37*
G36*
X115497Y40915D02*
X114620D01*
Y40513D01*
X115497D01*
Y40915D01*
D02*
G37*
G36*
X114366D02*
X113489D01*
Y40513D01*
X114366D01*
Y40915D01*
D02*
G37*
%LPD*%
D10*
X114493Y39116D02*
D03*
Y40386D02*
D03*
Y41656D02*
D03*
Y42926D02*
D03*
X109093Y39116D02*
D03*
Y40386D02*
D03*
Y41656D02*
D03*
Y42926D02*
D03*
D11*
X101219Y43815D02*
D03*
X103251D02*
D03*
X101219Y41402D02*
D03*
X103251D02*
D03*
X101219Y38735D02*
D03*
X103251D02*
D03*
D12*
X98044Y40513D02*
D03*
Y38481D02*
D03*
X95758Y40513D02*
D03*
Y38481D02*
D03*
D13*
X114493Y40386D02*
Y41656D01*
Y39116D02*
Y40386D01*
X95758Y38481D02*
X98044D01*
X107054Y37077D02*
X109093Y39116D01*
X95758Y40513D02*
X98044D01*
X109093Y39116D02*
X114493D01*
Y42926D02*
Y44384D01*
X113538Y45339D02*
X114493Y44384D01*
X101092Y45339D02*
X113538D01*
X98044Y40513D02*
X101092D01*
Y38862D02*
Y40513D01*
Y45339D01*
X98044Y38481D02*
X99448Y37077D01*
X107054D01*
X105791Y38735D02*
X107061D01*
X107315Y38989D01*
Y40005D01*
X107696Y40386D01*
X109093D01*
X106172Y41656D02*
X109093D01*
X106680Y42926D02*
X109093D01*
X105791Y43815D02*
X106680Y42926D01*
X103251Y43815D02*
X105791D01*
X103251Y41402D02*
X105664D01*
X105791Y41275D02*
X106172Y41656D01*
X103251Y38735D02*
X105791D01*
X98298Y40767D02*
Y43307D01*
X98044Y40513D02*
X98298Y40767D01*
X94361Y41910D02*
X95758Y43307D01*
X94361Y38608D02*
Y41910D01*
Y38608D02*
X95631D01*
X95758Y38481D01*
D14*
X98298Y43307D02*
D03*
D15*
X95758D02*
D03*
X105791Y41275D02*
D03*
Y38735D02*
D03*
D16*
Y43815D02*
D03*
M02*
