G04 Layer_Color=65535*
%FSLAX43Y43*%
%MOMM*%
G71*
G01*
G75*
%ADD17C,0.200*%
%ADD18C,0.203*%
%ADD19C,0.305*%
%ADD20C,0.127*%
%ADD21C,0.102*%
D17*
X111476Y43561D02*
G03*
X112110Y43561I317J0D01*
G01*
X110678Y38481D02*
Y43561D01*
Y38481D02*
X112908D01*
Y43561D01*
X112110D02*
X112908D01*
X110678D02*
X111476D01*
X94361Y41910D02*
X99695D01*
X94361D02*
Y44704D01*
X99695D01*
Y41910D02*
Y44704D01*
X104394Y45212D02*
X107188D01*
X104394Y37338D02*
Y45212D01*
Y37338D02*
X107188D01*
Y45212D01*
D18*
X100584Y42926D02*
X103886D01*
Y44704D01*
X100584D02*
X103886D01*
X100584Y42926D02*
Y44704D01*
Y40513D02*
X103886D01*
Y42291D01*
X100584D02*
X103886D01*
X100584Y40513D02*
Y42291D01*
Y37846D02*
X103886D01*
Y39624D01*
X100584D02*
X103886D01*
X100584Y37846D02*
Y39624D01*
D19*
X97419Y39497D02*
X98669D01*
X95133D02*
X96383D01*
D20*
X111506Y39751D02*
Y40090D01*
Y39920D01*
X112014D01*
Y40259D02*
X111506D01*
X111675Y40428D01*
X111506Y40597D01*
X112014D01*
Y40767D02*
X111506D01*
Y41021D01*
X111591Y41105D01*
X111760D01*
X111845Y41021D01*
Y40767D01*
X111506Y41275D02*
Y41613D01*
X111591D01*
X111929Y41275D01*
X112014D01*
X111506Y42121D02*
Y41782D01*
X111760D01*
X111675Y41952D01*
Y42036D01*
X111760Y42121D01*
X111929D01*
X112014Y42036D01*
Y41867D01*
X111929Y41782D01*
X111591Y42629D02*
X111506Y42544D01*
Y42375D01*
X111591Y42290D01*
X111929D01*
X112014Y42375D01*
Y42544D01*
X111929Y42629D01*
X95589Y37253D02*
X95504Y37338D01*
X95335D01*
X95250Y37253D01*
Y36915D01*
X95335Y36830D01*
X95504D01*
X95589Y36915D01*
X95758Y37253D02*
X95842Y37338D01*
X96012D01*
X96096Y37253D01*
Y37169D01*
X96012Y37084D01*
X96096Y36999D01*
Y36915D01*
X96012Y36830D01*
X95842D01*
X95758Y36915D01*
Y36999D01*
X95842Y37084D01*
X95758Y37169D01*
Y37253D01*
X95842Y37084D02*
X96012D01*
X98002Y37253D02*
X97917Y37338D01*
X97748D01*
X97663Y37253D01*
Y36915D01*
X97748Y36830D01*
X97917D01*
X98002Y36915D01*
X98171D02*
X98255Y36830D01*
X98425D01*
X98509Y36915D01*
Y37253D01*
X98425Y37338D01*
X98255D01*
X98171Y37253D01*
Y37169D01*
X98255Y37084D01*
X98509D01*
X100203Y38227D02*
X99695D01*
Y38481D01*
X99780Y38566D01*
X99949D01*
X100034Y38481D01*
Y38227D01*
Y38396D02*
X100203Y38566D01*
X99780Y38735D02*
X99695Y38819D01*
Y38989D01*
X99780Y39073D01*
X99864D01*
X99949Y38989D01*
Y38904D01*
Y38989D01*
X100034Y39073D01*
X100118D01*
X100203Y38989D01*
Y38819D01*
X100118Y38735D01*
X101854Y45212D02*
Y45720D01*
X102108D01*
X102193Y45635D01*
Y45466D01*
X102108Y45381D01*
X101854D01*
X102023D02*
X102193Y45212D01*
X102700Y45720D02*
X102362D01*
Y45466D01*
X102531Y45551D01*
X102616D01*
X102700Y45466D01*
Y45297D01*
X102616Y45212D01*
X102446D01*
X102362Y45297D01*
X107640Y38587D02*
Y38926D01*
X107809Y39095D01*
X107978Y38926D01*
Y38587D01*
Y38841D01*
X107640D01*
X108148Y39095D02*
Y38587D01*
X108486D01*
X108994Y39095D02*
X108655D01*
Y38587D01*
X108994D01*
X108655Y38841D02*
X108825D01*
X109163Y38587D02*
Y39095D01*
X109417D01*
X109502Y39010D01*
Y38841D01*
X109417Y38756D01*
X109163D01*
X109333D02*
X109502Y38587D01*
X109671Y39095D02*
X110010D01*
X109840D01*
Y38587D01*
X108035Y41825D02*
X107950Y41910D01*
X107781D01*
X107696Y41825D01*
Y41741D01*
X107781Y41656D01*
X107950D01*
X108035Y41571D01*
Y41487D01*
X107950Y41402D01*
X107781D01*
X107696Y41487D01*
X108542Y41825D02*
X108458Y41910D01*
X108288D01*
X108204Y41825D01*
Y41487D01*
X108288Y41402D01*
X108458D01*
X108542Y41487D01*
X108712Y41910D02*
Y41402D01*
X109050D01*
X107908Y44238D02*
X107823Y44323D01*
X107654D01*
X107569Y44238D01*
Y44154D01*
X107654Y44069D01*
X107823D01*
X107908Y43984D01*
Y43900D01*
X107823Y43815D01*
X107654D01*
X107569Y43900D01*
X108077Y44323D02*
Y43815D01*
X108331D01*
X108415Y43900D01*
Y44238D01*
X108331Y44323D01*
X108077D01*
X108585Y43815D02*
Y44154D01*
X108754Y44323D01*
X108923Y44154D01*
Y43815D01*
Y44069D01*
X108585D01*
X97663Y45593D02*
Y45254D01*
X97832Y45085D01*
X98002Y45254D01*
Y45593D01*
X98509Y45508D02*
X98425Y45593D01*
X98255D01*
X98171Y45508D01*
Y45170D01*
X98255Y45085D01*
X98425D01*
X98509Y45170D01*
X99017Y45508D02*
X98933Y45593D01*
X98763D01*
X98679Y45508D01*
Y45170D01*
X98763Y45085D01*
X98933D01*
X99017Y45170D01*
X95335Y45508D02*
X95250Y45593D01*
X95081D01*
X94996Y45508D01*
Y45170D01*
X95081Y45085D01*
X95250D01*
X95335Y45170D01*
Y45339D01*
X95165D01*
X95504Y45085D02*
Y45593D01*
X95842Y45085D01*
Y45593D01*
X96012D02*
Y45085D01*
X96266D01*
X96350Y45170D01*
Y45508D01*
X96266Y45593D01*
X96012D01*
D21*
X100203Y40767D02*
X99695D01*
Y41021D01*
X99780Y41106D01*
X99949D01*
X100034Y41021D01*
Y40767D01*
Y40936D02*
X100203Y41106D01*
Y41529D02*
X99695D01*
X99949Y41275D01*
Y41613D01*
M02*
